<svg xmlns="http://www.w3.org/2000/svg" viewBox="0 0 100 100" style="fill:#373a3c"><path d="M10 50.1C10 72.1 28 90 50.1 90S90 72.1 90 50.1 72.1 10 50.1 10 10 28 10 50.1zM36.7 18v64c-12.6-5.2-21.4-17.6-21.4-31.9S24.1 23.2 36.7 18zM84.7 50.1c0 14.4-8.8 26.7-21.3 31.9V18C75.9 23.2 84.7 35.7 84.7 50.1zM74 58.2c0 2.8-1 5.5-3 7.3l3.8 3.9c3-3 4.7-7 4.7-11.2 0-4.1-1.7-8-4.6-11 -4-4.1-4-10.7 0-14.8l-3.8-3.8C65 34.7 65 44.6 71 50.7 73 52.7 74 55.4 74 58.2zM25.4 69.4l3.8-3.9c-2-1.9-3.1-4.6-3.1-7.3 0-2.8 1.1-5.5 3.1-7.5 6-6.1 5.9-16-0.2-22.1l-3.8 3.8c4.1 4.1 4.1 10.7 0 14.8 -2.9 3-4.5 6.9-4.5 11C20.7 62.4 22.4 66.4 25.4 69.4zM50.1 15.3c0.6 0 1.1 0 1.7 0.1v69.2c-0.6 0-1.1 0-1.7 0s-1.1 0-1.7 0V15.5C48.9 15.3 49.5 15.3 50.1 15.3zM55.8 15.9c1.1 0.1 2.2 0.4 3.3 0.7v66.9c-1.1 0.3-2.2 0.6-3.3 0.8V15.9zM40.8 83.4V16.6c1.1-0.2 2.2-0.6 3.3-0.7v68.3C43 84 41.9 83.8 40.8 83.4z"/></svg>
