<?xml version="1.0" standalone="no"?>
<!DOCTYPE svg PUBLIC "-//W3C//DTD SVG 20010904//EN"
 "http://www.w3.org/TR/2001/REC-SVG-20010904/DTD/svg10.dtd">
<svg version="1.0" xmlns="http://www.w3.org/2000/svg"
 width="700.000000pt" height="700.000000pt" viewBox="0 0 700.000000 700.000000"
 preserveAspectRatio="xMidYMid meet">
<metadata>
Created by potrace 1.11, written by Peter Selinger 2001-2013
</metadata>
<g transform="translate(0.000000,700.000000) scale(0.100000,-0.100000)"
fill="#000000" stroke="none">
<path d="M3329 6296 c-2 -2 -42 -7 -89 -10 -234 -18 -528 -89 -765 -184 -765
-307 -1361 -935 -1627 -1712 -33 -96 -85 -292 -94 -348 -3 -20 -7 -44 -9 -52
-7 -24 -25 -157 -33 -240 -14 -154 -8 -475 13 -640 68 -531 348 -1114 725
-1514 387 -410 856 -684 1395 -816 124 -30 159 -37 235 -46 25 -3 51 -7 59
-10 55 -18 495 -26 641 -11 799 80 1521 496 1991 1147 92 127 154 228 231 378
82 160 182 427 213 570 2 9 13 58 24 107 25 114 33 168 49 320 10 95 9 455 -2
535 -4 36 -9 79 -11 95 -6 63 -37 223 -65 329 -106 410 -323 824 -595 1136
-151 174 -395 388 -570 502 -49 32 -95 61 -100 65 -59 43 -345 182 -465 226
-186 69 -429 131 -600 152 -30 4 -71 9 -90 12 -46 6 -456 14 -461 9z m296
-2791 l0 -2420 -80 -5 c-44 -3 -97 -3 -117 -1 l-38 3 0 2418 c0 2295 1 2419
18 2423 9 2 62 4 117 3 l100 -1 0 -2420z m-541 2366 c2 -9 4 -1084 3 -2390 l0
-2373 -36 5 c-20 2 -72 14 -116 26 l-80 22 0 2337 0 2337 100 26 c118 30 123
30 129 10z m967 -12 l86 -20 -1 -2341 -1 -2340 -57 -18 c-32 -10 -58 -17 -58
-15 0 2 -19 -2 -42 -9 -24 -7 -50 -12 -58 -12 -12 1 -14 309 -15 2381 0 1309
1 2385 3 2392 4 13 24 11 143 -18z m-1483 -3479 l-3 -1121 -140 70 c-123 61
-310 170 -325 189 -3 4 -24 20 -48 36 -65 44 -188 151 -272 235 -264 265 -463
584 -580 928 -22 67 -43 130 -45 140 -2 10 -12 56 -23 103 -11 47 -23 105 -27
130 -4 25 -9 53 -11 63 -25 138 -25 545 1 677 2 13 7 42 11 65 44 302 192 676
377 949 90 134 221 293 312 379 22 21 60 57 85 81 66 62 174 146 265 206 44
29 92 61 106 71 28 19 273 143 299 151 13 4 15 -125 18 -1114 1 -615 1 -1622
0 -2238z m2091 3253 c195 -105 376 -240 538 -401 413 -408 655 -913 720 -1497
10 -89 10 -399 0 -488 -52 -481 -235 -916 -546 -1297 -134 -164 -403 -399
-587 -512 -82 -50 -336 -179 -342 -174 -3 3 -5 4306 -3 4448 l1 27 67 -30 c37
-17 106 -51 152 -76z"/>
<path d="M1895 4864 c-66 -68 -122 -126 -123 -128 -2 -3 18 -32 45 -65 57 -71
117 -187 134 -257 6 -27 13 -58 16 -69 12 -47 10 -214 -4 -279 -27 -128 -96
-260 -186 -356 -123 -128 -215 -277 -269 -430 -64 -182 -74 -437 -25 -623 44
-166 147 -358 256 -474 l39 -41 132 134 c138 142 137 141 95 179 -23 20 -94
132 -114 178 -44 103 -62 184 -62 287 0 208 66 369 216 532 80 87 104 118 154
203 220 370 205 825 -39 1185 -50 73 -119 150 -133 149 -7 -1 -66 -57 -132
-125z"/>
<path d="M4935 4953 c-45 -51 -134 -174 -135 -186 0 -4 -10 -24 -23 -45 -49
-78 -104 -264 -114 -390 -29 -337 70 -625 297 -869 149 -159 211 -309 215
-519 5 -189 -48 -352 -155 -474 l-48 -56 133 -137 132 -137 49 57 c212 244
310 560 268 863 -34 249 -144 468 -333 660 -42 43 -111 157 -137 227 -96 254
-45 558 124 745 l36 39 -135 134 -134 134 -40 -46z"/>
</g>
</svg>
